<svg viewBox="0 0 224 277" fill="none" xmlns="http://www.w3.org/2000/svg">
<path d="M107.754 0H116.079C144.463 1.00988 172.678 12.632 192.499 33.3773C227.496 68.5347 233.498 128.237 208.03 170.567C201.18 181.881 191.922 191.569 181.24 199.254C175.696 192.664 171.762 184.842 169.727 176.438C203.52 142.667 201.486 79.9686 165.675 48.4056C134.832 20.2147 82.4729 22.0119 53.8346 52.5821C21.093 86.4558 21.9916 148.281 57.7005 179.673C74.6224 195.06 98.0892 200.829 120.437 199.425C129.39 199.374 138.766 198.843 146.854 194.547C152.738 191.312 155.858 184.688 156.417 178.132C156.926 191.295 161.945 204.56 171.592 213.632C180.579 222.532 193.313 227.068 205.809 226.812C193.822 227.017 181.647 231.125 172.847 239.529C162.674 248.789 156.587 262.568 156.824 276.415C155.468 262.91 150.737 249.132 140.428 239.923C131.899 231.604 120.098 227.137 108.314 226.949C79.8278 226.11 50.9182 215.583 30.8087 194.735C10.9195 174.931 0.779966 146.706 0 118.823V109.187C1.11908 84.0766 9.56306 58.9666 25.8067 39.6762C45.6789 15.1995 76.6062 1.06123 107.754 0Z" fill="#000" stroke="#000" strokeWidth="0.125"></path>
</svg>